<svg width="16" height="16" viewBox="0 0 16 16" fill="none" xmlns="http://www.w3.org/2000/svg">
<g clip-path="url(#clip0_172_4619)">
<path d="M14.6466 12.2197C14.6466 12.4597 14.5933 12.7063 14.4799 12.9463C14.3666 13.1863 14.2199 13.413 14.0266 13.6263C13.6999 13.9863 13.3399 14.2463 12.9333 14.413C12.5333 14.5797 12.0999 14.6663 11.6333 14.6663C10.9533 14.6663 10.2266 14.5063 9.45992 14.1797C8.69325 13.853 7.92658 13.413 7.16658 12.8597C6.39199 12.2931 5.66105 11.6691 4.97992 10.993C4.30576 10.3143 3.68398 9.5856 3.11992 8.81301C2.57325 8.05301 2.13325 7.29301 1.81325 6.53967C1.49325 5.77967 1.33325 5.05301 1.33325 4.35967C1.33325 3.90634 1.41325 3.47301 1.57325 3.07301C1.73325 2.66634 1.98659 2.29301 2.33992 1.95967C2.76659 1.53967 3.23325 1.33301 3.72659 1.33301C3.91325 1.33301 4.09992 1.37301 4.26659 1.45301C4.43992 1.53301 4.59325 1.65301 4.71325 1.82634L6.25992 4.00634C6.37992 4.17301 6.46658 4.32634 6.52658 4.47301C6.58658 4.61301 6.61992 4.75301 6.61992 4.87967C6.61992 5.03967 6.57325 5.19967 6.47992 5.35301C6.39325 5.50634 6.26658 5.66634 6.10658 5.82634L5.59992 6.35301C5.52658 6.42634 5.49325 6.51301 5.49325 6.61967C5.49325 6.67301 5.49992 6.71967 5.51325 6.77301C5.53325 6.82634 5.55325 6.86634 5.56659 6.90634C5.68659 7.12634 5.89325 7.41301 6.18658 7.75967C6.48658 8.10634 6.80658 8.45967 7.15325 8.81301C7.51325 9.16634 7.85992 9.49301 8.21325 9.79301C8.55992 10.0863 8.84658 10.2863 9.07325 10.4063C9.10658 10.4197 9.14658 10.4397 9.19325 10.4597C9.24658 10.4797 9.29992 10.4863 9.35992 10.4863C9.47325 10.4863 9.55992 10.4463 9.63325 10.373L10.1399 9.87301C10.3066 9.70634 10.4666 9.57967 10.6199 9.49967C10.7733 9.40634 10.9266 9.35967 11.0933 9.35967C11.2199 9.35967 11.3533 9.38634 11.4999 9.44634C11.6466 9.50634 11.7999 9.59301 11.9666 9.70634L14.1733 11.273C14.3466 11.393 14.4666 11.533 14.5399 11.6997C14.6066 11.8663 14.6466 12.033 14.6466 12.2197Z" stroke="#00A82D" stroke-width="1.5" stroke-miterlimit="10"/>
</g>
<defs>
<clipPath id="clip0_172_4619">
<rect width="16" height="16" fill="white"/>
</clipPath>
</defs>
</svg>
