<svg width="13" height="13" viewBox="0 0 13 13" fill="none" xmlns="http://www.w3.org/2000/svg">
<path d="M6.50006 7.27453C6.72199 7.27453 6.94175 7.23082 7.14679 7.14589C7.35183 7.06096 7.53814 6.93647 7.69507 6.77954C7.852 6.62261 7.97648 6.43631 8.06142 6.23127C8.14635 6.02623 8.19006 5.80647 8.19006 5.58453C8.19006 5.3626 8.14635 5.14284 8.06142 4.9378C7.97648 4.73276 7.852 4.54645 7.69507 4.38952C7.53814 4.23259 7.35183 4.10811 7.14679 4.02317C6.94175 3.93824 6.72199 3.89453 6.50006 3.89453C6.05184 3.89453 5.62198 4.07258 5.30505 4.38952C4.98811 4.70646 4.81006 5.13632 4.81006 5.58453C4.81006 6.03275 4.98811 6.46261 5.30505 6.77954C5.62198 7.09648 6.05184 7.27453 6.50006 7.27453Z" stroke="#00A82D" stroke-width="1.5"/>
<path d="M1.96059 4.59843C3.02768 -0.0924075 9.97726 -0.0869907 11.0389 4.60384C11.6618 7.35551 9.95018 9.68468 8.44976 11.1255C7.92547 11.6312 7.22546 11.9137 6.49705 11.9137C5.76864 11.9137 5.06864 11.6312 4.54434 11.1255C3.04934 9.68468 1.33768 7.35009 1.96059 4.59843Z" stroke="#00A82D" stroke-width="1.5"/>
</svg>
