<svg width="334" height="334" viewBox="0 0 334 334" fill="none" xmlns="http://www.w3.org/2000/svg">
<path d="M162.055 34.5586C162.055 34.5586 216.605 46.7043 225.771 94.7245C234.937 142.745 239.938 166.469 296.046 163.077C352.154 159.685 345.766 281.994 232.436 299.506C119.107 317.017 130.773 245.557 75.5129 248.945C20.2529 252.333 -6.1705 218.44 8.83629 174.926C23.8431 131.411 88.2768 161.369 84.6667 94.99C80.2166 10.8339 162.055 34.5586 162.055 34.5586Z" fill="#F9DDBD"/>
<path d="M244.776 118.042C244.776 118.042 248.156 147.243 270.978 148.523C293.799 149.803 265.481 140.724 261.681 118.042C257.881 95.359 241.396 105.836 244.776 118.042Z" fill="#F9BDE8"/>
<path d="M151.046 266.861C151.652 261.793 153.376 252.992 155.801 242.688C95.1243 243.548 48.4119 248.886 48.4119 255.341C48.4119 261.634 92.7942 266.861 151.185 267.923C151.062 267.583 151.015 267.221 151.046 266.861Z" fill="#1E1E1E"/>
<path d="M297.678 255.341C297.678 251.418 279.351 247.903 250.522 245.562C252.733 252.952 254.358 259.637 255.139 264.729C281.293 262.395 297.678 259.055 297.678 255.341Z" fill="#1E1E1E"/>
<path d="M182.784 162.661C182.784 162.661 163.517 163.957 154.767 177.153C148.149 187.131 136.61 198.06 130.836 197.925C125.514 204.523 108.38 228.656 122.439 250.744C149.564 248.632 177.699 225.993 177.699 225.993L182.784 162.661Z" fill="#6BF754"/>
<path d="M154.767 177.153C148.149 187.131 136.61 198.06 130.836 197.925C128.399 200.945 123.493 207.638 120.232 216.122C126.85 219.875 136.479 219.494 144.215 211.315C160.129 194.47 156.103 165.221 188.03 162.661H182.784C182.784 162.661 163.517 163.957 154.767 177.153V177.153Z" fill="#43E229"/>
<path fill-rule="evenodd" clip-rule="evenodd" d="M182.784 162.661C182.784 162.661 163.517 163.957 154.767 177.153C148.149 187.131 136.61 198.06 130.836 197.925C125.514 204.523 108.38 228.656 122.439 250.744C149.564 248.632 177.699 225.993 177.699 225.993L182.784 162.661Z" stroke="#1E1E1E" stroke-width="1.4"/>
<path d="M130.836 197.909C128.978 197.87 127.714 196.681 127.408 193.947C126.16 182.696 139.768 156.867 137.545 156.447C135.322 156.027 133.943 160.339 130.884 159.221C127.825 158.104 115.465 152.279 116.297 157.28C117.129 162.281 118.429 162.649 111.205 171.545C104.865 179.336 65.6536 222.268 96.5746 244.321C104.349 249.868 113.337 251.453 122.439 250.74C108.38 228.656 125.514 204.523 130.836 197.909V197.909Z" fill="#F9726B"/>
<path d="M127.409 193.947C126.16 182.697 139.768 156.868 137.545 156.448C135.322 156.028 133.943 160.339 130.884 159.222C130.809 159.198 130.725 159.162 130.638 159.131C130.611 163.41 129.449 177.086 117.022 192.14C108.962 201.908 112.576 211.779 120.24 216.138C123.501 207.654 128.407 200.961 130.844 197.941C128.978 197.886 127.714 196.697 127.409 193.947V193.947Z" fill="#EA5653"/>
<path d="M107.686 182.289C114.114 178.287 114.514 171.59 114.133 167.773C113.361 168.839 112.402 170.076 111.205 171.55C108.475 174.926 99.6339 184.833 92.925 196.761C93.46 198.742 94.7637 199.535 96.761 198.5C105.095 194.153 98.3064 188.134 107.686 182.289V182.289Z" fill="white"/>
<path fill-rule="evenodd" clip-rule="evenodd" d="M130.836 197.909C128.978 197.87 127.714 196.681 127.408 193.947C126.16 182.696 139.768 156.867 137.545 156.447C135.322 156.027 133.943 160.339 130.884 159.221C127.825 158.104 115.465 152.279 116.297 157.28C117.129 162.281 118.429 162.649 111.205 171.545C104.865 179.336 65.6536 222.268 96.5746 244.321C104.349 249.868 113.337 251.453 122.439 250.74C108.38 228.656 125.514 204.523 130.836 197.909V197.909Z" stroke="#1E1E1E" stroke-width="1.4"/>
<path d="M133.583 147.559C133.583 147.559 137.03 146.37 136.816 150.424C136.602 154.478 135.132 163.552 130.706 163.877C126.279 164.202 133.583 147.559 133.583 147.559Z" fill="#DB631F"/>
<path opacity="0.78" d="M136.816 150.424C137.03 146.362 133.582 147.559 133.582 147.559C133.582 147.559 132.679 149.616 131.704 152.271C131.878 152.497 132.065 152.722 132.271 152.952C132.271 152.952 136.329 156.019 132.58 163.129C135.56 160.826 136.638 153.844 136.816 150.424V150.424Z" fill="#A8450E"/>
<path fill-rule="evenodd" clip-rule="evenodd" d="M133.583 147.559C133.583 147.559 137.03 146.37 136.816 150.424C136.602 154.478 135.132 163.552 130.706 163.877C126.279 164.202 133.583 147.559 133.583 147.559Z" stroke="#1E1E1E" stroke-width="1.4"/>
<path d="M133.523 148.035C133.523 148.035 133.039 173.579 119.943 177.204C112.144 178.58 132.818 151.91 118.754 146.244C117.561 138.865 133.523 148.035 133.523 148.035Z" fill="#DB791F"/>
<path opacity="0.78" d="M133.448 149.632C130.555 143.87 123.462 145.107 122.423 149.101C122.423 149.101 130.464 154.902 128.657 161.722C127.234 167.108 119.939 172.818 118.271 176.594C118.5 177.133 119.023 177.387 119.943 177.205C131.054 174.133 133.087 155.271 133.448 149.632V149.632Z" fill="#A84F0E"/>
<path fill-rule="evenodd" clip-rule="evenodd" d="M133.523 148.035C133.523 148.035 133.039 173.579 119.943 177.204C112.144 178.58 132.818 151.91 118.754 146.244C117.561 138.865 133.523 148.035 133.523 148.035Z" stroke="#1E1E1E" stroke-width="1.4"/>
<path d="M119.491 169.097C120.605 165.764 128.796 169.026 128.938 167.845C129.081 166.664 123.589 164.869 123.589 164.869C123.589 164.869 131.157 166.058 130.603 164.869C130.048 163.68 123.806 162.012 123.806 162.012C123.806 162.012 132.271 162.777 131.435 161.112C130.599 159.448 122.685 158.473 122.685 158.473C122.685 158.473 132.826 157.708 130.115 156.389C113.935 151.32 116.297 157.292 116.297 157.292C116.531 157.383 116.991 155.346 119.447 155.901C121.904 156.456 119.491 169.097 119.491 169.097Z" fill="#F9726B"/>
<path d="M119.978 169.097C121.088 165.764 128.796 169.026 128.938 167.845C129.081 166.664 123.589 164.869 123.589 164.869C123.589 164.869 131.157 166.058 130.603 164.869C130.048 163.68 123.806 162.012 123.806 162.012C123.806 162.012 132.271 162.777 131.435 161.112C130.599 159.448 122.685 158.473 122.685 158.473C122.685 158.473 132.826 157.708 130.115 156.389C113.935 151.32 116.297 157.292 116.297 157.292" stroke="#1E1E1E" stroke-width="1.4"/>
<path d="M250.522 245.561C243.572 222.312 230.855 192.065 220.6 182.427C204.571 167.345 189.374 166.537 189.374 166.537C189.374 166.537 172.683 166.042 163.101 190.622C157.2 205.76 151.248 226.164 147.155 242.688C144.599 252.991 142.772 261.8 142.13 266.861C142.087 267.216 142.126 267.577 142.245 267.915C149.774 268.046 157.541 268.113 165.463 268.113C200.073 268.113 231.573 266.825 255.139 264.721C254.358 259.637 252.733 252.952 250.522 245.561V245.561Z" fill="#6BF754"/>
<path d="M215.46 228.307C221.226 224.083 221.158 217.01 219.791 210.653C219.306 208.256 218.233 206.016 216.669 204.135C217.406 207.844 222.181 223.627 193.475 232.472C201.155 237.703 213.534 226.488 213.534 226.488" fill="#1E1E1E"/>
<path d="M215.46 228.307C221.226 224.083 221.158 217.01 219.791 210.653C219.306 208.256 218.233 206.016 216.669 204.135C217.406 207.844 222.181 223.627 193.475 232.472C201.155 237.703 213.534 226.488 213.534 226.488" stroke="#1E1E1E" stroke-width="1.4"/>
<path d="M249.448 242.074C242.85 221.072 232.107 195.71 222.811 184.785C220.901 189.806 231.438 223.18 221.571 228.771C213.443 233.376 150.567 236.364 147.789 251.755C145.011 267.146 206.401 244.46 217.449 246.706C235.412 250.364 221.907 262.985 228.573 266.595C238.218 266.088 247.138 265.47 255.123 264.753C253.97 259.114 251.953 251.01 249.448 242.074V242.074Z" fill="#298FE2"/>
<path d="M160.188 198.5C155.286 212.37 150.575 228.886 147.155 242.688C144.599 252.991 142.772 261.8 142.13 266.861C142.087 267.216 142.126 267.577 142.245 267.915C149.774 268.046 157.541 268.113 165.463 268.113C200.073 268.113 231.573 266.825 255.139 264.721C254.346 259.629 252.733 252.944 250.522 245.553C243.572 222.304 230.855 192.057 220.6 182.419C204.571 167.337 182.784 162.653 182.784 162.653" stroke="#1E1E1E" stroke-width="1.4"/>
<path d="M160.188 198.5C159.907 200.438 150.575 228.886 147.155 242.688C139.352 247.657 128.36 249.968 128.36 249.968C128.36 249.968 148.728 232.984 160.188 198.5Z" fill="#1E1E1E" stroke="#1E1E1E" stroke-width="1.4"/>
<path d="M201.654 161.722C201.654 161.722 276.549 162.185 274.1 226.488C273.526 241.471 265.636 252.991 248.577 256.866C244.095 243.044 222.621 231.037 213.534 226.488C219.304 222.264 221.159 217.009 219.791 210.637C216.708 196.332 198.365 197.584 198.365 197.584C194.489 189.096 181.04 173.931 201.654 161.722V161.722Z" fill="#61F754"/>
<path d="M186.643 188.672C201.642 188.331 206.536 173.293 210.023 162.352C203.235 161.163 204.055 161.789 202.312 161.738C194.91 167.606 188.498 177.252 186.643 188.672H186.643Z" fill="#29E23C"/>
<path d="M205.264 161.896C206.453 162.015 275.329 169.208 260.742 228.953C258.519 236.669 250.415 241.04 239.284 243.639C243.576 247.693 247.059 252.175 248.581 256.867C265.62 252.991 273.546 241.472 274.104 226.489C276.24 170.717 220.18 162.97 205.264 161.896L205.264 161.896Z" fill="#29E23C"/>
<path d="M198.626 190.535C199.768 190.737 214.576 181.504 218.357 163.676C215.789 163.168 213.411 162.792 211.299 162.515C213.241 170.385 209.207 181.421 198.626 190.535H198.626Z" fill="#29E23C"/>
<path fill-rule="evenodd" clip-rule="evenodd" d="M201.654 161.722C201.654 161.722 276.549 162.185 274.1 226.488C273.526 241.471 265.636 252.991 248.576 256.866C244.094 243.044 222.621 231.037 213.534 226.488C219.304 222.264 221.158 217.009 219.791 210.637C219.306 208.24 218.233 206 216.669 204.119" fill="#6BF754"/>
<path d="M201.654 161.722C201.654 161.722 276.549 162.185 274.1 226.488C273.526 241.471 265.636 252.991 248.576 256.866C244.094 243.044 222.621 231.037 213.534 226.488C219.304 222.264 221.158 217.009 219.791 210.637C219.306 208.24 218.233 206 216.669 204.119" stroke="#1E1E1E" stroke-width="1.4"/>
<path d="M176.475 188.672C176.475 188.672 168.24 155.295 193.098 152.509C215.349 150.012 218.392 173.511 198.626 190.551" fill="#6BF754"/>
<path d="M176.475 188.672C176.475 188.672 168.24 155.295 193.098 152.509C215.349 150.012 218.392 173.511 198.626 190.551" stroke="#1E1E1E" stroke-width="1.4"/>
<path fill-rule="evenodd" clip-rule="evenodd" d="M298.233 255.341C298.233 262.398 242.422 268.121 173.57 268.121C104.718 268.121 48.9111 262.398 48.9111 255.341" fill="#6BF754"/>
<path d="M298.233 255.341C298.233 262.398 242.422 268.121 173.57 268.121C104.718 268.121 48.9111 262.398 48.9111 255.341" stroke="#1E1E1E" stroke-width="1.4"/>
<path d="M154.121 151.534C158.632 151.534 162.288 147.877 162.288 143.366C162.288 138.856 158.632 135.199 154.121 135.199C149.611 135.199 145.954 138.856 145.954 143.366C145.954 147.877 149.611 151.534 154.121 151.534Z" fill="#F99D32"/>
<path opacity="0.83" d="M156.388 141.596C156.388 141.596 150.099 144.148 147.024 147.401C148.563 150.124 151.522 151.729 154.644 151.533C157.766 151.336 160.501 149.373 161.686 146.478C161.377 142.535 156.388 141.596 156.388 141.596Z" fill="#DB631F"/>
<path fill-rule="evenodd" clip-rule="evenodd" d="M154.121 151.534C158.632 151.534 162.288 147.877 162.288 143.366C162.288 138.856 158.632 135.199 154.121 135.199C149.611 135.199 145.954 138.856 145.954 143.366C145.954 147.877 149.611 151.534 154.121 151.534Z" stroke="#1E1E1E" stroke-width="1.4"/>
<path d="M176.574 125.253C176.574 125.253 159.534 156.737 183.239 160.81C182.593 163.584 176.479 185.439 185.367 188.308C194.256 191.177 211.755 177.303 203.061 136.551C201.202 130.254 198.702 109.331 176.574 125.253V125.253Z" fill="#F9726B"/>
<path d="M203.061 136.551C203.013 136.393 202.966 136.222 202.918 136.044C198.955 127.433 192.698 121.521 184.519 120.696C181.707 121.896 179.046 123.426 176.594 125.253C176.594 125.253 176.198 125.983 175.619 127.235C175.04 128.487 190.059 123.641 194.347 132.695C195.298 137.49 196.479 140.125 198.646 137.673C200.814 135.22 205.11 150.266 201.127 168.506C198.222 181.821 185.554 179.998 181.353 183.652C182.051 185.923 183.303 187.646 185.387 188.32C194.256 191.173 211.755 177.304 203.061 136.551V136.551Z" fill="#EA5653"/>
<path fill-rule="evenodd" clip-rule="evenodd" d="M176.574 125.253C176.574 125.253 159.534 156.737 183.239 160.81C182.593 163.584 176.479 185.439 185.367 188.308C194.256 191.177 211.755 177.303 203.061 136.551C201.202 130.254 198.702 109.331 176.574 125.253V125.253Z" stroke="#1E1E1E" stroke-width="1.4"/>
<path d="M196.154 145.626C196.154 145.626 194.767 144.235 194.489 134.53C194.212 124.825 185.601 122.678 176.574 125.269C167.547 127.861 150.741 123.002 149.493 107.041C148.245 91.0789 168.24 82.3173 176.158 92.0379C184.075 101.758 190.107 106.815 201.432 105.511C221.016 103.26 204.349 124.532 210.043 124.136C215.738 123.74 215.876 130.389 208.656 132.885C201.436 135.382 212.266 137.886 212.128 142.749C211.989 147.611 204.737 146.501 204.737 146.501C204.737 146.501 202.082 130.809 198.516 135.941C194.949 141.072 196.154 145.626 196.154 145.626V145.626Z" fill="#F7B90D"/>
<path d="M204.737 146.461C204.737 146.461 211.989 147.567 212.127 142.709C212.266 137.85 201.428 135.346 208.656 132.845C215.884 130.345 215.737 123.68 210.043 124.096C204.963 124.468 217.679 107.571 206.576 105.522C214.973 109.794 203.544 128.748 199.859 130.63C195.226 133.008 200.738 111.875 181.068 117.846C162.954 123.347 151.379 110.595 149.663 108.546C151.835 123.295 167.84 127.761 176.574 125.253C185.601 122.661 194.212 124.793 194.489 134.514C194.767 144.234 196.154 145.609 196.154 145.609C196.154 145.609 194.965 141.02 198.531 135.885C202.098 130.749 204.737 146.461 204.737 146.461V146.461Z" fill="#F98D0B"/>
<path fill-rule="evenodd" clip-rule="evenodd" d="M196.154 145.626C196.154 145.626 194.767 144.235 194.489 134.53C194.212 124.825 185.601 122.678 176.574 125.269C167.547 127.861 150.741 123.002 149.493 107.041C148.245 91.0789 168.24 82.3173 176.158 92.0379C184.075 101.758 190.107 106.815 201.432 105.511C221.016 103.26 204.349 124.532 210.043 124.136C215.738 123.74 215.876 130.389 208.656 132.885C201.436 135.382 212.266 137.886 212.128 142.749C211.989 147.611 204.737 146.501 204.737 146.501C204.737 146.501 202.082 130.809 198.516 135.941C194.949 141.072 196.154 145.626 196.154 145.626V145.626Z" stroke="#1E1E1E" stroke-width="1.4"/>
<path d="M123.628 116.087C104.659 103.43 80.9023 85.1779 65.8836 71.459C83.5216 98.5441 48.3843 161.016 48.3843 161.016C48.3843 161.016 92.2713 148.407 112.271 148.546C113.614 148.546 114.93 148.581 116.214 148.621C126.886 138.163 124.94 122.344 123.628 116.087V116.087Z" fill="white"/>
<path opacity="0.64" d="M48.3843 161.013C48.3843 161.013 92.2713 148.404 112.271 148.542C113.614 148.542 114.93 148.578 116.214 148.618C118.257 146.611 119.957 144.283 121.247 141.726C101.881 143.224 82.3091 144.651 84.8373 132.707C90.0363 108.139 77.3477 81.418 77.3477 81.418C74.9 81.654 72.4983 82.2371 70.2149 83.1497C75.2475 113.254 48.3843 161.013 48.3843 161.013H48.3843Z" fill="#ADAAAA"/>
<path fill-rule="evenodd" clip-rule="evenodd" d="M123.628 116.087C104.659 103.43 80.9023 85.1779 65.8836 71.459C83.5216 98.5441 48.3843 161.016 48.3843 161.016C48.3843 161.016 92.2713 148.407 112.271 148.546C113.614 148.546 114.93 148.581 116.214 148.621C126.886 138.163 124.94 122.344 123.628 116.087V116.087Z" stroke="#1E1E1E" stroke-width="1.4"/>
<path d="M145.205 152.398C145.467 152.465 145.601 152.509 145.601 152.509L145.625 152.453C145.974 152.485 146.327 152.509 146.683 152.509C152.306 152.521 157.057 148.342 157.762 142.763C158.467 137.185 154.906 131.955 149.457 130.567V130.567C144.385 129.097 134.851 123.577 123.652 116.104C124.964 122.361 126.909 138.18 116.238 148.633C125.221 148.869 134.162 149.949 142.943 151.859C143.676 152.117 144.434 152.297 145.205 152.398V152.398Z" fill="#F99232"/>
<path opacity="0.83" d="M156.63 146.394C154.731 139.095 138.068 140.45 121.247 141.746C119.957 144.303 118.257 146.631 116.214 148.637C125.197 148.873 134.138 149.953 142.919 151.863C143.657 152.127 144.42 152.313 145.197 152.418C145.459 152.485 145.593 152.529 145.593 152.529L145.617 152.473C145.966 152.505 146.319 152.529 146.675 152.529C150.886 152.53 154.738 150.156 156.63 146.394V146.394Z" fill="#DB6E1F"/>
<path fill-rule="evenodd" clip-rule="evenodd" d="M145.205 152.398C145.467 152.465 145.601 152.509 145.601 152.509L145.625 152.453C145.974 152.485 146.327 152.509 146.683 152.509C152.306 152.521 157.057 148.342 157.762 142.763C158.467 137.185 154.906 131.955 149.457 130.567V130.567C144.385 129.097 134.851 123.577 123.652 116.104C124.964 122.361 126.909 138.18 116.238 148.633C125.221 148.869 134.162 149.949 142.943 151.859C143.676 152.117 144.434 152.297 145.205 152.398V152.398Z" stroke="#1E1E1E" stroke-width="1.4"/>
<path d="M213.534 226.488C206.318 231.771 189.615 233.09 168.795 235.25C131.336 239.121 120.826 257.782 121.825 258.059C122.824 258.337 129.992 255.052 131.141 254.865C121.449 265.604 124.801 273.569 126.449 273.435C128.098 273.3 126.449 267.641 132.203 261.546C131.177 269.139 132.409 273.767 133.436 273.435C134.462 273.102 136.313 261.919 136.313 261.919C136.313 261.919 135.916 270.637 137.957 272.991C139.939 275.265 138.686 268.418 141.864 261.966C141.972 261.691 142.105 261.426 142.261 261.174C142.118 261.435 141.983 261.697 141.864 261.966C140.418 265.418 141.654 271.818 144.123 272.844C146.794 273.954 141.864 268.584 149.057 260.805C153.971 255.495 211.834 265.24 248.596 256.882C244.094 243.044 222.621 231.037 213.534 226.488V226.488Z" fill="#F9726B"/>
<path d="M136.293 261.904C136.293 261.904 135.897 270.622 137.938 272.976C139.919 275.25 138.667 268.403 141.845 261.951C141.953 261.676 142.085 261.411 142.241 261.159C142.098 261.42 141.964 261.682 141.845 261.951C140.398 265.403 141.635 271.803 144.104 272.829C146.774 273.939 141.845 268.569 149.037 260.79C153.951 255.48 211.814 265.225 248.576 256.867C247.055 252.175 243.572 247.694 239.28 243.64C200.323 252.754 124.262 240.164 133.416 273.419C134.446 273.087 136.293 261.904 136.293 261.904V261.904Z" fill="#EA5653"/>
<path fill-rule="evenodd" clip-rule="evenodd" d="M213.534 226.488C206.318 231.771 189.615 233.09 168.795 235.25C131.336 239.121 120.826 257.782 121.825 258.059C122.824 258.337 129.992 255.052 131.141 254.865C121.449 265.604 124.801 273.569 126.449 273.435C128.098 273.3 126.449 267.641 132.203 261.546C131.177 269.139 132.409 273.767 133.436 273.435C134.462 273.102 136.313 261.919 136.313 261.919C136.313 261.919 135.916 270.637 137.957 272.991C139.939 275.265 138.686 268.418 141.864 261.966C141.972 261.691 142.105 261.426 142.261 261.174C142.118 261.435 141.983 261.697 141.864 261.966C140.418 265.418 141.654 271.818 144.123 272.844C146.794 273.954 141.864 268.584 149.057 260.805C153.971 255.495 211.834 265.24 248.596 256.882C244.094 243.044 222.621 231.037 213.534 226.488V226.488Z" stroke="#1E1E1E" stroke-width="1.4"/>
<path d="M76.8539 121.976C83.43 93.9826 77.8246 68.7204 64.334 65.5513C50.8434 62.3821 34.5761 82.506 28 110.499C21.424 138.493 27.0293 163.755 40.52 166.924C54.0106 170.093 70.2778 149.969 76.8539 121.976Z" fill="#F94432"/>
<path opacity="0.83" d="M76.8539 121.976C83.43 93.9826 77.8246 68.7204 64.334 65.5513C50.8434 62.3821 34.5761 82.506 28 110.499C21.424 138.493 27.0293 163.755 40.52 166.924C54.0106 170.093 70.2778 149.969 76.8539 121.976Z" fill="#DB851F"/>
<path d="M61.3937 66.6091C59.0594 66.0925 56.6265 66.2464 54.3758 67.053C43.6329 72.4343 33.0088 89.1847 28 110.496C25.5312 120.97 24.7862 131.059 25.5312 139.749C27.2114 151.411 31.9904 159.733 39.1431 161.413C51.7604 164.377 66.9732 145.562 73.1234 119.381C79.2735 93.1989 74.011 69.5732 61.3937 66.6091V66.6091Z" fill="#F99D32"/>
<path fill-rule="evenodd" clip-rule="evenodd" d="M76.8539 121.976C83.43 93.9826 77.8246 68.7204 64.334 65.5513C50.8434 62.3821 34.5761 82.506 28 110.499C21.424 138.493 27.0293 163.755 40.52 166.924C54.0106 170.093 70.2778 149.969 76.8539 121.976Z" stroke="#1E1E1E" stroke-width="1.4"/>
<path d="M68.2442 119.952C73.6692 96.8586 70.015 76.2465 60.0823 73.9132C50.1497 71.5798 37.7 88.4089 32.2751 111.502C26.8502 134.595 30.5044 155.207 40.437 157.54C50.3696 159.874 62.8193 143.045 68.2442 119.952Z" fill="white" stroke="#1E1E1E" stroke-width="1.4"/>
<path d="M68.4593 83.4229C60.9697 88.9231 53.615 102.115 49.7751 118.457C46.387 132.885 46.5415 146.347 49.5571 154.985C57.0467 149.485 64.4015 136.289 68.2413 119.951C71.6294 105.523 71.4749 92.0616 68.4593 83.4229Z" fill="#1E1E1E"/>
<path d="M70.7062 102.012C57.8987 104.817 41.9488 101.813 41.9488 101.813L38.7787 111.903L36.2703 122.324C36.2703 122.324 52.4619 129.596 60.9659 140.2C64.1925 133.766 66.6352 126.967 68.2414 119.951C69.645 114.066 70.4706 108.057 70.7062 102.012V102.012Z" fill="#D8D8D8" stroke="#1E1E1E" stroke-width="1.4"/>
<path d="M43.8579 113.303C45.2042 107.572 44.2974 102.456 41.8323 101.877C39.3673 101.298 36.2775 105.475 34.9312 111.206C33.5848 116.937 34.4917 122.052 36.9568 122.632C39.4218 123.211 42.5115 119.034 43.8579 113.303Z" fill="#F98632"/>
<path opacity="0.83" d="M43.8589 113.297C45.2022 107.567 44.2948 102.451 41.83 101.873C41.4659 101.796 41.0883 101.812 40.7323 101.92C41.5248 104.235 43.4111 111.431 38.7073 114.978C37.0144 116.266 35.6554 117.941 34.7446 119.864C35.1805 121.369 35.9334 122.388 36.9439 122.637C39.4206 123.208 42.5115 119.051 43.8589 113.297V113.297Z" fill="#DB4C1F"/>
<path fill-rule="evenodd" clip-rule="evenodd" d="M43.8579 113.304C45.2042 107.573 44.2974 102.457 41.8323 101.878C39.3673 101.299 36.2775 105.476 34.9312 111.207C33.5848 116.938 34.4917 122.053 36.9568 122.632C39.4218 123.212 42.5115 119.035 43.8579 113.304Z" stroke="#1E1E1E"/>
<path d="M177.343 130.631C177.343 130.631 171.997 141.33 173.455 141.691C174.914 142.051 176.994 141.691 176.994 141.691" fill="#F9726B"/>
<path d="M177.343 130.631C177.343 130.631 171.997 141.33 173.455 141.691C174.914 142.051 176.994 141.691 176.994 141.691" stroke="#1E1E1E" stroke-linecap="round"/>
<path d="M183.247 160.811C183.247 160.811 192.413 162.431 195.532 156.828Z" fill="#F9726B"/>
<path d="M183.247 160.811C183.247 160.811 192.413 162.431 195.532 156.828" stroke="#1E1E1E" stroke-linecap="round"/>
<path d="M183.247 160.811C183.247 160.811 192.413 162.431 195.532 156.828C195.532 162.939 188.922 171.589 181.092 171.431C182.372 164.413 183.247 160.811 183.247 160.811Z" fill="#1E1E1E" stroke="#1E1E1E" stroke-linecap="round"/>
<path d="M184.808 133.468C187.33 133.468 189.373 132.698 189.373 131.748C189.373 130.798 187.33 130.028 184.808 130.028C182.287 130.028 180.243 130.798 180.243 131.748C180.243 132.698 182.287 133.468 184.808 133.468Z" fill="white" stroke="#161515"/>
<path d="M183.176 130.147C181.464 130.393 180.24 131.015 180.24 131.733C180.24 132.45 181.464 133.084 183.176 133.318C184.127 133.068 184.809 132.446 184.809 131.733C184.809 131.019 184.127 130.393 183.176 130.147Z" fill="#161515"/>
<path d="M169.255 133.468C171.776 133.468 173.82 132.698 173.82 131.748C173.82 130.798 171.776 130.028 169.255 130.028C166.734 130.028 164.69 130.798 164.69 131.748C164.69 132.698 166.734 133.468 169.255 133.468Z" fill="white" stroke="#161515" stroke-width="1.4"/>
<path d="M167.622 130.147C165.91 130.393 164.69 131.015 164.69 131.733C164.69 132.45 165.91 133.084 167.622 133.318C168.577 133.068 169.255 132.446 169.255 131.733C169.255 131.019 168.585 130.393 167.622 130.147Z" fill="#161515"/>
<path opacity="0.51" d="M57.9303 103.224C61.2598 113.127 59.0979 124.053 52.2478 131.942C55.4725 134.338 58.3992 137.11 60.9658 140.2C64.1924 133.766 66.635 126.968 68.2413 119.951C69.6449 114.066 70.4704 108.057 70.7061 102.012C66.5028 102.869 62.2199 103.276 57.9303 103.224V103.224Z" fill="#1E1E1E"/>
<path d="M147.155 292.654C163.818 292.654 177.327 289.67 177.327 285.989C177.327 282.307 163.818 279.323 147.155 279.323C130.491 279.323 116.983 282.307 116.983 285.989C116.983 289.67 130.491 292.654 147.155 292.654Z" fill="#1E1E1E"/>
<path d="M176.475 153.353C178.011 153.353 179.257 151.628 179.257 149.501C179.257 147.374 178.011 145.649 176.475 145.649C174.939 145.649 173.693 147.374 173.693 149.501C173.693 151.628 174.939 153.353 176.475 153.353Z" fill="#1E1E1E" stroke="#1E1E1E" stroke-width="1.4" stroke-linecap="round"/>
<path d="M186.643 188.673L181.068 220.065Z" fill="white"/>
<path d="M186.643 188.673L181.068 220.065" stroke="#1E1E1E" stroke-width="1.4"/>
<path d="M185.32 198.552C186.69 198.552 187.8 197.442 187.8 196.071C187.8 194.701 186.69 193.591 185.32 193.591C183.95 193.591 182.839 194.701 182.839 196.071C182.839 197.442 183.95 198.552 185.32 198.552Z" fill="white" stroke="#1E1E1E" stroke-width="1.4"/>
<path d="M183.921 206.7C185.291 206.7 186.402 205.589 186.402 204.219C186.402 202.849 185.291 201.738 183.921 201.738C182.551 201.738 181.44 202.849 181.44 204.219C181.44 205.589 182.551 206.7 183.921 206.7Z" fill="white" stroke="#1E1E1E" stroke-width="1.4"/>
<path d="M182.526 215.389C183.896 215.389 185.007 214.278 185.007 212.908C185.007 211.538 183.896 210.428 182.526 210.428C181.156 210.428 180.045 211.538 180.045 212.908C180.045 214.278 181.156 215.389 182.526 215.389Z" fill="white" stroke="#1E1E1E" stroke-width="1.4"/>
<path d="M225.042 220.791C225.042 220.791 231.434 206.176 220.045 199.649C209.766 193.262 222.126 186.874 230.598 192.846C239.07 198.817 226.71 222.459 232.975 222.459C239.241 222.459 221.432 235.235 225.042 220.791Z" fill="white"/>
<path d="M238.376 210.424C238.376 210.424 234.208 217.45 238.376 218.413C242.545 219.376 241.432 208.007 238.376 210.424Z" fill="white"/>
<path d="M219.625 187.012C219.625 187.012 222.32 186.042 224.582 187.012C226.845 187.983 222.24 181.401 219.625 187.012Z" fill="white"/>
<path d="M157.438 240.259C155.52 240.715 153.741 241.222 152.092 241.753" stroke="white" stroke-width="1.4" stroke-linecap="round"/>
<path d="M214.628 231.196C214.628 231.196 201.155 236.891 166.156 238.698" stroke="white" stroke-width="1.4" stroke-linecap="round"/>
<path d="M133.689 249.468C133.689 249.468 140.501 243.627 142.407 244.947C144.313 246.267 136.923 247.864 138.048 249.809C139.174 251.755 130.147 253.221 133.689 249.468Z" fill="white"/>
<path d="M106.39 187.753C106.39 187.753 102.503 190.622 104.54 194.605C106.577 198.587 106.39 190.436 108.059 189.695C109.727 188.954 108.471 185.035 106.39 187.753V187.753Z" fill="white"/>
<path d="M95.0925 237.854C95.903 238.487 96.7721 239.042 97.6881 239.51" stroke="white" stroke-width="1.4" stroke-linecap="round"/>
<path d="M90.8366 207.657C90.8366 207.657 84.4289 225.886 92.925 235.792" stroke="white" stroke-width="1.4" stroke-linecap="round"/>
<path d="M120.858 155.639C120.858 155.639 116.852 155.437 117.502 156.828" stroke="white" stroke-width="1.4" stroke-linecap="round"/>
<path d="M166.156 196.071C166.156 196.071 161.004 205.76 163.656 211.316C166.307 216.872 166.572 199.788 168.656 196.872C170.741 193.955 167.991 191.76 166.156 196.071V196.071Z" fill="white"/>
<path d="M161.67 215.389C163.037 216.791 163.291 218.937 162.288 220.619C160.6 223.667 158.991 215.852 161.67 215.389Z" fill="white"/>
<path d="M177.699 181.563C177.891 182.657 178.167 183.734 178.524 184.785" stroke="white" stroke-width="1.4" stroke-linecap="round"/>
<path d="M179.257 163.882C179.257 163.882 176.954 170.674 177.303 178.033" stroke="white" stroke-width="1.4" stroke-linecap="round"/>
<path d="M152.964 103.961C152.964 103.961 152.825 95.3501 164.06 92.5723C175.044 93.4044 153.527 98.8413 159.075 102.154C164.622 105.467 153.658 113.543 152.964 103.961Z" fill="white"/>
<path d="M167.658 97.7082C167.658 97.7082 170.614 93.8208 174.692 98.4056C178.769 102.99 160.576 99.3765 167.658 97.7082Z" fill="white"/>
<path d="M182.455 104.492C185.783 106.68 190.915 109.006 197.259 108.498C208.751 107.575 206.286 115.069 206.286 115.069" stroke="white" stroke-width="1.4" stroke-linecap="round"/>
<path d="M178.262 101.045C178.88 101.695 179.542 102.301 180.243 102.86" stroke="white" stroke-width="1.4" stroke-linecap="round"/>
<path d="M141.504 131.043C141.504 131.043 142.407 134.515 143.727 132.918C145.047 131.321 141.088 128.959 141.504 131.043Z" fill="white"/>
<path d="M149.663 133.337C149.663 133.337 154.767 133.82 155.326 140.276" stroke="white" stroke-width="1.4" stroke-linecap="round"/>
<path d="M126.842 125.709C126.842 125.709 126.798 119.226 130.174 122.42C133.551 125.614 135.084 129.271 138.001 128.487C140.917 127.702 140.406 131.494 138.464 131.772C136.523 132.049 129.715 124.92 129.18 127.837C128.645 130.753 126.977 128.166 126.842 125.709V125.709Z" fill="white"/>
<path d="M101.885 104.924C109.735 110.277 118.802 117.062 120.232 120.695C121.77 124.607 121.381 130.012 120.026 134.295" stroke="#1E1E1E"/>
<path d="M95.5762 100.739C96.5193 101.346 97.5575 102.015 98.6195 102.721" stroke="#1E1E1E"/>
<path d="M89.9094 97.1533C89.9094 97.1533 91.0348 97.8428 92.8498 98.992" stroke="#1E1E1E"/>
<path d="M72.8184 115.089C72.6149 116.428 72.3864 117.806 72.1328 119.222" stroke="white"/>
<path d="M66.2322 73.3496C71.0905 77.6769 76.139 87.1755 73.5117 109.929" stroke="white"/>
<path d="M58.3821 69.5176C59.6854 69.695 60.9522 70.0789 62.1348 70.6549" stroke="white"/>
<path d="M39.6186 104.422C39.6186 104.422 35.4062 109.886 36.2701 111.737C37.134 113.587 38.4139 108.404 39.3927 108.777C40.3715 109.149 41.5445 102.848 39.6186 104.422V104.422Z" fill="white"/>
<path d="M48.3842 105.812C48.3842 105.812 66.9495 105.44 66.9495 107.001C66.9495 108.562 56.6267 107.556 57.6649 109.22C58.7031 110.885 45.2775 108.646 48.3842 105.812Z" fill="white"/>
<path d="M279.307 230.967C279.058 233.42 278.705 235.992 278.233 238.682" stroke="#1E1E1E" stroke-width="1.4" stroke-linecap="round"/>
<path d="M263.512 183.176C263.512 183.176 280.266 192.567 279.759 223.219" stroke="#1E1E1E" stroke-width="1.4" stroke-linecap="round"/>
<path d="M169.255 157.086L159.907 163.129" stroke="#1E1E1E" stroke-width="1.4" stroke-linecap="round"/>
<path d="M168.427 154.034L154.133 155.639" stroke="#1E1E1E" stroke-width="1.4" stroke-linecap="round"/>
<path d="M164.583 148.586L168.427 150.44" stroke="#1E1E1E" stroke-width="1.4" stroke-linecap="round"/>
<path d="M81.5758 207.658C81.5758 207.658 75.1325 230.475 84.8371 241.738" stroke="#1E1E1E" stroke-width="1.4" stroke-linecap="round"/>
<path d="M23.7323 154.035C23.2805 152.235 22.9352 150.411 22.698 148.57" stroke="#1E1E1E" stroke-width="1.4" stroke-linecap="round"/>
<path d="M54.1102 170.048C54.1102 170.048 43.0701 176.907 33.8092 171.161C30.0288 168.815 27.4689 164.623 25.7966 160.462" stroke="#1E1E1E" stroke-width="1.4" stroke-linecap="round"/>
<path d="M58.3821 61.196C58.3821 61.196 70.6665 58.9729 76.3926 71.4713" stroke="#1E1E1E" stroke-width="1.4" stroke-linecap="round"/>
<path d="M22.6979 106.921L3.61743 102.027" stroke="#1E1E1E" stroke-width="1.4" stroke-linecap="round"/>
<path d="M17.5068 93.7734L26.209 102.733" stroke="#1E1E1E" stroke-width="1.4" stroke-linecap="round"/>
<path d="M23.8035 114.011L10.469 116.234" stroke="#1E1E1E" stroke-width="1.4" stroke-linecap="round"/>
<path d="M28.8005 173.452C31.3933 176.593 35.3368 178.297 39.4008 178.033" stroke="#1E1E1E" stroke-width="1.4" stroke-linecap="round"/>
</svg>
