<svg width="197" height="208" viewBox="0 0 197 208" fill="none" xmlns="http://www.w3.org/2000/svg">
<path d="M159.31 92.559L145.03 207.517H142.195L156.475 92.559H159.31Z" fill="#D2DCFF"/>
<path d="M97.9543 136.162L89.3101 207.516H86.4751L95.1192 136.162H97.9543Z" fill="#D2DCFF"/>
<path d="M59.754 136.161L58.7808 144.186L51.1098 207.516H48.2739L55.9846 143.872L56.9181 136.161H59.754Z" fill="#D2DCFF"/>
<path d="M97.9543 207.516H95.1192L93.9237 197.647L92.5066 185.946L87.8433 147.458L86.4751 136.161H89.311L90.7179 147.781L93.9237 174.243L95.3408 185.944L97.9543 207.516Z" fill="#D2DCFF"/>
<path d="M136.155 207.516H133.319L126.611 152.132H126.61L124.675 136.161H127.511L129.484 152.44L136.155 207.516Z" fill="#D2DCFF"/>
<path d="M59.8912 88.463H57.0562V131.625H59.8912V88.463Z" fill="#D2DCFF"/>
<path d="M98.4176 88.463H95.5825V131.625H98.4176V88.463Z" fill="#D2DCFF"/>
<path d="M128.701 131.625H89.7476C91.0054 131.625 92.0257 132.64 92.0257 133.893C92.0257 135.145 91.0054 136.161 89.7476 136.161H128.701C129.959 136.161 130.979 135.145 130.979 133.893C130.979 132.64 129.96 131.625 128.701 131.625Z" fill="#D2DCFF"/>
<path d="M92.0258 133.893C92.0258 132.64 91.0055 131.625 89.7476 131.625H59.9522H56.1147C54.8559 131.625 53.8364 132.64 53.8364 133.893C53.8364 135.145 54.8568 136.161 56.1147 136.161H59.9522H89.7476C91.0063 136.162 92.0258 135.146 92.0258 133.893Z" fill="#86A2E2"/>
<path d="M99.6025 88.463H55.8729C53.4945 88.463 51.5659 86.5429 51.5659 84.1748V60.2696C51.5659 57.9016 53.4945 55.9815 55.8729 55.9815H99.6025C101.981 55.9815 103.909 57.9016 103.909 60.2696V84.1748C103.909 86.5429 101.981 88.463 99.6025 88.463Z" fill="#D2DCFF"/>
<path d="M59.7538 136.161L58.7816 144.186C57.7579 144.071 56.821 143.966 55.9844 143.872L56.9187 136.161H59.7538Z" fill="#AEC3FF"/>
<path d="M89.3106 136.161L90.7185 147.781C89.7555 147.672 88.7967 147.565 87.8438 147.458L86.4756 136.16H89.3106V136.161Z" fill="#AEC3FF"/>
<path d="M129.484 152.44C128.569 152.343 127.61 152.24 126.612 152.132H126.611L124.676 136.161H127.512L129.484 152.44Z" fill="#AEC3FF"/>
<path d="M57.0562 88.463H59.8921V94.4237L57.0562 94.1117V88.463Z" fill="#AEC3FF"/>
<path d="M98.4167 88.463V98.6699L95.5825 98.3579V88.463H98.4167Z" fill="#AEC3FF"/>
<path d="M103.962 12.7176C100.631 18.2044 90.4494 26.0996 75.3095 21.2804V21.2813C75.2623 21.2746 75.2151 21.2704 75.1654 21.2704C71.5637 21.2704 71.3126 31.2433 77.3736 31.8196C77.4629 32.1124 77.5548 32.3908 77.6483 32.6509V48.869H91.3198V42.5651C92.2726 42.8327 93.1858 42.9862 94.0224 42.9862C99.6774 42.9862 109.508 34.3009 109.731 20.6186C108.218 20.2789 103.962 16.5452 103.962 12.7176Z" fill="#FCBEB7"/>
<path d="M112.604 16.6392C112.604 7.62754 104.621 0.326294 92.6504 0.326294C82.702 0.326294 79.2831 5.79216 79.2831 5.79216C79.2831 5.79216 69.8799 7.81543 69.8799 19.4493C69.8799 30.2636 69.8799 48.8698 69.8799 48.8698H85.3307H86.1184H97.5294H109.934V24.6408C110.914 23.443 112.604 20.778 112.604 16.6392ZM94.0237 42.9862C93.1871 42.9862 92.2738 42.8327 91.3209 42.5651V48.869H77.6495V32.6509C77.5559 32.3909 77.4642 32.1124 77.3749 31.8196C71.3138 31.2433 71.5648 21.2704 75.1666 21.2704C75.2154 21.2704 75.2635 21.2746 75.3106 21.2813V21.2805C90.4506 26.0996 100.632 18.2036 103.964 12.7176C103.964 16.5461 108.219 20.2789 109.733 20.6195C109.508 34.3009 99.6778 42.9862 94.0237 42.9862Z" fill="#311643"/>
<path d="M66.9409 47.6736L77.6492 42.7346L83.5249 42.8889L91.3207 43.2546L102.523 46.6419V60.8728H66.9409V47.6736Z" fill="#FCBEB7"/>
<path d="M102.523 61.7443V46.6418L91.3197 43.2546V42.5651C88.1519 41.6751 84.5509 39.5193 81.9062 37.5078L102.523 61.7443Z" fill="#F9AFAB"/>
<path d="M84.0184 32.1702C86.0783 32.1702 87.7482 30.5076 87.7482 28.4567C87.7482 26.4058 86.0783 24.7432 84.0184 24.7432C81.9585 24.7432 80.2886 26.4058 80.2886 28.4567C80.2886 30.5076 81.9585 32.1702 84.0184 32.1702Z" fill="#F49795"/>
<path d="M109.252 25.374C108.779 27.8678 107.986 30.1419 106.985 32.1652C105.013 32.0679 103.444 30.4448 103.444 28.4567C103.444 26.4058 105.114 24.744 107.174 24.744C107.943 24.744 108.658 24.9755 109.252 25.374Z" fill="#F49795"/>
<path d="M102.944 17.1634C100.221 17.1634 97.9719 19.2245 97.6889 21.8626C96.2086 21.1689 94.9018 21.5447 94.2117 21.8601C93.927 19.2236 91.68 17.1634 88.9579 17.1634C86.0436 17.1634 83.6729 19.5239 83.6729 22.4255C83.6729 25.327 86.0436 27.6875 88.9579 27.6875C91.8073 27.6875 94.1359 25.431 94.2379 22.6184C94.6768 22.3667 96.0712 21.7259 97.6636 22.6243C97.7689 25.4335 100.097 27.6875 102.944 27.6875C105.858 27.6875 108.229 25.327 108.229 22.4255C108.23 19.5239 105.859 17.1634 102.944 17.1634ZM88.9579 26.9988C86.4253 26.9988 84.3645 24.947 84.3645 22.4255C84.3645 19.9031 86.4253 17.8513 88.9579 17.8513C91.4913 17.8513 93.5521 19.9031 93.5521 22.4255C93.5521 24.9478 91.4913 26.9988 88.9579 26.9988ZM102.944 26.9988C100.411 26.9988 98.3493 24.947 98.3493 22.4255C98.3493 19.9031 100.41 17.8513 102.944 17.8513C105.477 17.8513 107.538 19.9031 107.538 22.4255C107.538 24.9478 105.477 26.9988 102.944 26.9988Z" fill="white"/>
<path d="M102.947 25.7909C102.531 25.7909 102.193 25.4545 102.193 25.0401V23.6376C102.193 23.2232 102.531 22.8868 102.947 22.8868C103.363 22.8868 103.701 23.2232 103.701 23.6376V25.0401C103.701 25.4545 103.363 25.7909 102.947 25.7909Z" fill="#311643"/>
<path d="M89.1872 25.7909C88.7701 25.7909 88.4331 25.4545 88.4331 25.0401V23.6376C88.4331 23.2232 88.771 22.8868 89.1872 22.8868C89.6034 22.8868 89.9411 23.2232 89.9411 23.6376V25.0401C89.9411 25.4545 89.6034 25.7909 89.1872 25.7909Z" fill="#311643"/>
<path d="M94.5719 34.7094C93.2256 34.7094 92.3089 34.2053 91.7536 33.7464C91.0535 33.1676 90.7629 32.536 90.7503 32.5091C90.6719 32.3355 90.7494 32.1317 90.9238 32.0536C91.0973 31.9756 91.3021 32.0528 91.3804 32.2248C91.42 32.3103 92.3763 34.3059 95.154 33.9863C95.3444 33.9645 95.5155 34.0996 95.5374 34.2883C95.5593 34.477 95.4237 34.6482 95.2341 34.67C95.0016 34.6977 94.7817 34.7094 94.5719 34.7094Z" fill="#311643"/>
<path d="M125.518 202.151L112.977 196.784L113.62 199.878L98.1924 195.055V199.456C98.1924 201.004 99.0053 202.407 100.283 203.196L101.61 206.972C101.725 207.299 102.034 207.518 102.382 207.518C102.834 207.518 103.199 207.153 103.199 206.704V204.246L113.743 207.517H124.41C125.961 207.517 127.218 206.265 127.218 204.721C127.218 203.603 126.55 202.593 125.518 202.151Z" fill="#2F3D6C"/>
<path d="M152.867 202.151L140.325 196.784L140.968 199.878L125.541 195.055V199.456C125.541 201.004 126.354 202.407 127.632 203.196L128.959 206.972C129.074 207.299 129.383 207.518 129.731 207.518C130.182 207.518 130.548 207.153 130.548 206.704V204.246L141.092 207.517H151.758C153.309 207.517 154.566 206.265 154.566 204.721C154.566 203.603 153.897 202.593 152.867 202.151Z" fill="#2F3D6C"/>
<path d="M98.1924 189.201L98.1999 195.054L113.62 199.878L112.977 196.784L111.696 196.133L112.816 189.201H98.1924Z" fill="#FCBEB7"/>
<path d="M125.541 189.201L125.548 195.054L140.968 199.878L140.325 196.784L139.044 196.134L140.165 189.201H125.541Z" fill="#FCBEB7"/>
<path d="M87.1309 106.183V106.733C87.1199 120.555 98.3717 131.766 112.255 131.766H123.927L125.542 189.2H140.165L150.948 120.72C152.15 113.085 146.22 106.183 138.457 106.183H87.1309V106.183Z" fill="#6277D7"/>
<path d="M122.923 125.015L123.926 131.767H121.796L122.923 125.015Z" fill="#4A5EA3"/>
<path d="M64.1889 116.616C64.921 125.184 72.1194 131.767 80.756 131.767H96.5784L98.1934 189.201H112.817L123.486 121.445C124.748 113.428 118.523 106.184 110.374 106.184H109.203L105.847 96.1945H67.3255L64.3969 112.257C64.1341 113.693 64.0642 115.16 64.1889 116.616Z" fill="#6277D7"/>
<path d="M86.6733 54.4515C89.27 54.4515 91.3467 51.9618 92.747 49.4402H77.939C80.1977 51.9551 83.2907 54.4515 86.6733 54.4515Z" fill="white"/>
<path d="M114.503 54.8348L113.479 53.2469C112.148 51.185 110.276 49.5442 108.084 48.4898C107.473 48.1971 106.839 47.9496 106.183 47.7508L94.7733 44.2915C94.7733 44.7025 94.0554 47.0848 92.7478 49.4394C91.3476 51.9609 89.2708 54.4506 86.6742 54.4506C83.2915 54.4506 80.1986 51.9542 77.9398 49.4394C75.6482 46.8877 74.2168 44.3166 74.2168 44.3166L64.0216 49.02C59.8487 50.9451 56.7768 54.6486 55.6664 59.0927L51.1219 73.5518C50.3443 76.0263 49.9482 78.6041 49.9482 81.1969V82.3948C49.9482 85.5027 52.4792 88.0217 55.6007 88.0217H66.47L67.325 96.1937H105.846L115.555 56.4638L114.503 54.8348Z" fill="#FE9ECC"/>
<path d="M87.0535 58.0383C84.9119 58.0383 82.7331 57.3891 80.5763 56.1098C78.8643 55.094 77.1624 53.6806 75.5178 51.9081C72.7266 48.8992 71.0256 45.8282 71.0088 45.798L71.5816 45.5338C71.5985 45.564 73.2473 48.541 75.9889 51.4937C77.5913 53.22 79.2452 54.5932 80.9041 55.5763C82.9598 56.7952 85.029 57.4126 87.0535 57.4126C88.9643 57.4126 90.6856 56.7775 92.1693 55.526C93.3698 54.5127 94.423 53.0942 95.2983 51.31C96.8031 48.244 97.2631 45.08 97.2673 45.0489L97.8924 45.2385C97.8739 45.3685 97.4139 48.4177 95.8695 51.5717C94.9563 53.4373 93.8501 54.9262 92.5821 55.9983C90.9805 57.3513 89.1202 58.0383 87.0535 58.0383Z" fill="white"/>
<path d="M150.958 120.645C149.681 122.015 147.856 122.872 145.83 122.872C141.964 122.872 138.829 119.752 138.829 115.902C138.829 112.053 141.963 108.933 145.83 108.933C146.012 108.933 146.193 108.94 146.371 108.953C149.735 111.649 151.661 116.007 150.958 120.645Z" fill="#4A5EA3"/>
<path d="M123.646 119.214C122.462 121.392 120.148 122.871 117.486 122.871C113.62 122.871 110.487 119.751 110.487 115.901C110.487 112.052 113.621 108.932 117.486 108.932C117.863 108.932 118.232 108.962 118.592 109.02C121.648 111.427 123.598 115.132 123.646 119.214Z" fill="#4A5EA3"/>
<path d="M55.0312 88.0226H97.2974V82.7111L55.6116 77.9355C52.5946 77.5899 49.9482 79.9387 49.9482 82.9627C49.9482 85.7569 52.2239 88.0226 55.0312 88.0226Z" fill="#FCBEB7"/>
<path d="M150.174 56.4638H106.987C105.256 56.4638 103.733 57.6055 103.256 59.263L95.7894 85.1596H79.3006C78.5212 85.1596 77.8565 85.7636 77.8296 86.5386C77.8001 87.3532 78.4548 88.0226 79.2661 88.0226H99.9547H143.791L152.141 59.0625C152.515 57.7606 151.533 56.4638 150.174 56.4638Z" fill="#4A5EA3"/>
<path d="M126.901 73.3555C127.008 72.1464 126.42 71.1071 125.588 71.0342C124.756 70.9614 123.994 71.8826 123.888 73.0917C123.781 74.3009 124.369 75.3402 125.201 75.413C126.033 75.4859 126.794 74.5647 126.901 73.3555Z" fill="#2F3D6C"/>
<path d="M67.3241 96.1937L65.7832 104.646L106.73 98.8284L105.845 96.1937H67.3241Z" fill="#4A5EA3"/>
<path d="M65.1078 51.4341C65.1078 53.9842 63.0319 56.0511 60.4698 56.0511C59.2996 56.0511 58.2305 55.6191 57.4141 54.9069C58.9618 52.3628 61.2483 50.3001 64.0201 49.0208L64.331 48.8774C64.8222 49.6088 65.1078 50.4888 65.1078 51.4341Z" fill="#FF78BA"/>
<path d="M114.503 54.8348C113.784 55.2911 112.931 55.5545 112.016 55.5545C109.455 55.5545 107.378 53.4876 107.378 50.9375C107.378 50.0391 107.637 49.1995 108.083 48.4898C110.276 49.5434 112.148 51.1842 113.478 53.2469L114.503 54.8348Z" fill="#FF78BA"/>
<path d="M99.6724 71.687C99.4929 72.3086 91.6492 80.7188 91.6492 80.7188L70.749 79.6686L96.5198 82.6213L99.6724 71.687Z" fill="#FF78BA"/>
<path d="M17.1156 92.559L13.2957 123.316L2.83504 207.517H0L10.4303 123.556L14.2805 92.559H17.1156Z" fill="#D2DCFF"/>
<path d="M54.6404 207.517H51.8044L41.0549 120.985L37.5239 92.559H40.359L43.8613 120.749L54.6404 207.517Z" fill="#D2DCFF"/>
<path d="M14.2804 92.559H17.1154L13.2956 123.316L10.4302 123.556L14.2804 92.559Z" fill="#AEC3FF"/>
<path d="M40.359 92.559L43.8613 120.749L41.0549 120.985L37.5239 92.559H40.359Z" fill="#AEC3FF"/>
<path d="M196.835 207.517H193.999L181.782 109.169L179.719 92.559H182.555L184.588 108.933L196.835 207.517Z" fill="#D2DCFF"/>
<path d="M184.588 108.933L181.782 109.169L179.719 92.559H182.555L184.588 108.933Z" fill="#AEC3FF"/>
<path d="M190.068 88.0226H45.4624V92.559H190.068C191.326 92.559 192.346 91.5432 192.346 90.2908C192.346 89.0376 191.325 88.0226 190.068 88.0226Z" fill="#D2DCFF"/>
<path d="M16.0274 88.0226H7.48272C6.22485 88.0226 5.20459 89.0384 5.20459 90.2908C5.20459 91.5432 6.22485 92.559 7.48272 92.559H16.0274H45.4623V88.0226H16.0274Z" fill="#86A2E2"/>
<path d="M186.816 82.9518V81.795C186.816 81.4377 186.524 81.1475 186.165 81.1475H159.214C157.854 81.1475 156.752 82.2447 156.752 83.5985V85.5707C156.752 86.9245 157.854 88.0217 159.214 88.0217H186.165C186.524 88.0217 186.816 87.7315 186.816 87.3742V86.2174C186.816 85.8601 186.524 85.5698 186.165 85.5698H160.204C159.657 85.5698 159.214 85.1286 159.214 84.5842C159.214 84.0398 159.657 83.5985 160.204 83.5985H186.165C186.524 83.5985 186.816 83.3091 186.816 82.9518Z" fill="#6277D7"/>
<path d="M185.651 83.5985V85.5707H160.204C159.657 85.5707 159.214 85.1294 159.214 84.585C159.214 84.0406 159.657 83.5994 160.204 83.5994H185.651V83.5985Z" fill="#D2DCFF"/>
<path d="M184.89 76.0767V74.9199C184.89 74.5626 184.598 74.2724 184.239 74.2724H161.14C159.78 74.2724 158.678 75.3696 158.678 76.7234V78.6955C158.678 80.0494 159.78 81.1466 161.14 81.1466H184.239C184.598 81.1466 184.89 80.8564 184.89 80.499V79.3431C184.89 78.9858 184.598 78.6955 184.239 78.6955H162.129C161.583 78.6955 161.14 78.2543 161.14 77.7099C161.14 77.1655 161.583 76.7243 162.129 76.7243H184.239C184.599 76.7243 184.89 76.434 184.89 76.0767Z" fill="#F9A0C0"/>
<path d="M184.034 76.7243V78.6964H162.13C161.583 78.6964 161.14 78.2551 161.14 77.7107C161.14 77.1663 161.583 76.7251 162.13 76.7251H184.034V76.7243Z" fill="#FFD9E8"/>
<path d="M28.7229 76.991H41.4407C42.0684 76.991 42.5544 77.5363 42.4795 78.157L41.4036 87.1049C41.3404 87.6283 40.8947 88.0226 40.3647 88.0226H29.798C29.268 88.0226 28.8224 87.6283 28.7592 87.1049L27.6833 78.157C27.6091 77.5363 28.0953 76.991 28.7229 76.991Z" fill="#D2DCFF"/>
<path d="M39.4472 73.3396V69.2704L37.0022 73.8957V66.3839L35.0813 71.1133L33.1604 66.3839V73.8957L30.7154 69.2704V73.3396L27.1533 67.6363L28.7228 76.991H35.0813H41.4406L43.0102 67.6363L39.4472 73.3396Z" fill="#6277D7"/>
<path d="M55.1002 86.3214C56.9638 86.3214 58.4745 84.8173 58.4745 82.9618C58.4745 81.1064 56.9638 79.6023 55.1002 79.6023C53.2367 79.6023 51.7261 81.1064 51.7261 82.9618C51.7261 84.8173 53.2367 86.3214 55.1002 86.3214Z" fill="#F9AFAB"/>
</svg>
