<svg width="23" height="22" viewBox="0 0 23 22" fill="none" xmlns="http://www.w3.org/2000/svg">
<path d="M20.1173 18.4734L16.7727 15.1558C18.0709 13.537 18.6997 11.4824 18.5296 9.41432C18.3594 7.34625 17.4034 5.42194 15.8581 4.03709C14.3128 2.65224 12.2956 1.9121 10.2213 1.96886C8.14701 2.02562 6.17331 2.87496 4.70602 4.34225C3.23873 5.80954 2.38939 7.78324 2.33263 9.85753C2.27587 11.9318 3.01601 13.949 4.40086 15.4943C5.78571 17.0397 7.71001 17.9957 9.77809 18.1658C11.8462 18.3359 13.9008 17.7072 15.5196 16.4089L18.8371 19.7265C18.921 19.811 19.0207 19.878 19.1305 19.9238C19.2404 19.9696 19.3582 19.9931 19.4772 19.9931C19.5962 19.9931 19.7141 19.9696 19.8239 19.9238C19.9338 19.878 20.0335 19.811 20.1173 19.7265C20.2798 19.5584 20.3706 19.3337 20.3706 19.0999C20.3706 18.8661 20.2798 18.6415 20.1173 18.4734ZM10.4621 16.4089C9.21395 16.4089 7.99386 16.0388 6.95608 15.3454C5.91831 14.652 5.10946 13.6664 4.63183 12.5133C4.15419 11.3602 4.02922 10.0913 4.27272 8.86716C4.51621 7.64302 5.11724 6.51858 5.9998 5.63603C6.88235 4.75347 8.00679 4.15245 9.23093 3.90895C10.4551 3.66545 11.7239 3.79042 12.877 4.26806C14.0301 4.74569 15.0157 5.55454 15.7091 6.59231C16.4026 7.63009 16.7727 8.85018 16.7727 10.0983C16.7727 11.772 16.1078 13.3771 14.9243 14.5606C13.7409 15.744 12.1357 16.4089 10.4621 16.4089Z" fill="black"/>
</svg>
